# xmcd
#
# Track frame offsets:
#	150
#	19914
#	37542
#	55548
#	72683
#	89230
#	105861
#	125013
#	145055
#	162687
#	178266
#	195882
#	214582
#
# Disc length: 3151 seconds
#
# Revision: 0
# Processed by: cddbd v1.5.2PL0 Copyright (c) Steve Scherf et al.
# Submitted via: EasyCDDAExtractor 9.1.3.1
#
DISCID=b40c4d0d
DTITLE=Fiona Lewis - Spirit
DYEAR=2008
DGENRE=Blues
TTITLE0=Bleeding Love
TTITLE1=Better In Time
TTITLE2=I Will Be
TTITLE3=I'm You
TTITLE4=Forgive Me
TTITLE5=Misses Glass
TTITLE6=Angel
TTITLE7=The First Time Ever I Saw Your Face
TTITLE8=Yesterday
TTITLE9=Whatever It Takes
TTITLE10=Take A Bow
TTITLE11=Footprints In The Sand (UK bonus cut)
TTITLE12=Here I Am (UK bonus cut)
EXTD=
EXTT0=
EXTT1=
EXTT2=
EXTT3=
EXTT4=
EXTT5=
EXTT6=
EXTT7=
EXTT8=
EXTT9=
EXTT10=
EXTT11=
EXTT12=
PLAYORDER=
